<svg version="1.2" xmlns="http://www.w3.org/2000/svg" viewBox="0 0 256 359" width="256" height="359">
	<title>&lt;Group&gt;</title>
	<style>
		.s0 { fill: #000000 } 
	</style>
	<g id="&lt;Group&gt;">
		<path id="&lt;Path&gt;" class="s0" d="m95.5 96.4c8.3 8.2 8.3 21.6 0 29.9q0 0 0 0c-4.1 4.1-9.5 6.2-14.9 6.2-5.5 0-10.9-2.1-15-6.2-8.2-8.3-8.2-21.7 0-29.9 8.3-8.3 21.7-8.3 29.9 0z"/>
		<path id="&lt;Path&gt;" class="s0" d="m160.1 126.3c-8.3-8.3-8.3-21.7 0-29.9 8.2-8.3 21.6-8.3 29.9 0 8.2 8.2 8.2 21.6 0 29.9q0 0 0 0c-4.1 4.1-9.5 6.2-15 6.2-5.4 0-10.8-2.1-14.9-6.2z"/>
		<path id="&lt;Compound Path&gt;" fill-rule="evenodd" class="s0" d="m110.8 169.3h-30.2c-15.5 0-30.1-6-41.1-17-10.9-10.9-17-25.5-17-41 0-15.5 6.1-30 17-41 21.9-21.9 60.2-21.9 82.1 0q3.4 3.4 6.2 7.4 2.8-4 6.2-7.4c21.9-21.9 60.2-21.9 82.1 0 10.9 11 16.9 25.5 16.9 41 0 15.5-6 30.1-16.9 41-11 11-25.6 17-41.1 17h-30.2l-7.5 13.9c-1.9 3.4-5.5 5.6-9.5 5.6q0 0 0 0c-4 0-7.6-2.2-9.5-5.6zm-30.2-12.7h34c2.3 0 4.4 1.3 5.5 3.3l7.7 14.1 7.7-14.1c1.1-2 3.2-3.3 5.6-3.3h34c12.1 0 23.5-4.7 32-13.3 17.7-17.7 17.7-46.5 0-64.2-17.6-17.6-46.4-17.6-64.1 0-3.9 3.9-7 8.6-9.4 13.9-1 2.3-3.3 3.8-5.8 3.8-2.5 0-4.8-1.5-5.8-3.8-2.3-5.3-5.5-10-9.3-13.9-8.9-8.8-20.5-13.2-32.1-13.2-11.6 0-23.3 4.4-32.1 13.2-17.7 17.7-17.7 46.5 0 64.2 8.6 8.6 20 13.3 32.1 13.3z"/>
		<path id="&lt;Compound Path&gt;" fill-rule="evenodd" class="s0" d="m255.6 352.4c0 3.5-2.8 6.3-6.3 6.3h-243c-3.5 0-6.3-2.8-6.3-6.3 0-3.5 2.8-6.3 6.3-6.3h48.8v-18.4h-48.8c-3.5 0-6.3-2.8-6.3-6.3v-193.6c0-23.1 6.2-44.7 17-63.4v-45.1c0-3.9 2.1-7.5 5.6-9.4 3.4-1.9 7.7-1.7 11 0.4l20.5 13.3c20.9-14.8 46.2-23.6 73.7-23.6 27.4 0 52.8 8.8 73.7 23.6l20.5-13.3c3.3-2.1 7.6-2.3 11-0.4 3.5 1.9 5.6 5.5 5.6 9.4v45.1c10.8 18.7 17 40.3 17 63.4v39.8c0 81.3-61 148.5-139.6 158.6v19.9h133.3c3.5 0 6.3 2.8 6.3 6.3zm-206-37.3h45.8c81.4 0 147.6-66.2 147.6-147.5v-39.8c0-63.5-51.7-115.2-115.2-115.2-63.5 0-115.2 51.7-115.2 115.2v36.4c42.3 3.3 75.8 38.4 75.8 81.5 0 29.3-15.6 54.9-38.8 69.4zm-20-269c4.3-5.1 9-9.8 14-14.2l-14-9.1zm-17 268.4c35.3-3.3 63.2-32.7 63.2-68.8 0-36.2-27.9-65.6-63.2-68.8zm199.3-282.6c5.1 4.4 9.8 9.1 14.1 14.2v-23.3zm-144.3 314.3h35.7v-18.8c-2.6 0.1-5.3 0.4-8 0.4h-27.7z"/>
	</g>
</svg>